<?xml version="1.0" encoding="UTF-8" standalone="no"?>
<!-- Created with Inkscape (http://www.inkscape.org/) -->

<svg
   version="1.1"
   id="svg2"
   width="116"
   height="137.33333"
   viewBox="0 0 116 137.33333"
   xmlns="http://www.w3.org/2000/svg"
   xmlns:svg="http://www.w3.org/2000/svg">
  <defs
     id="defs6" />
  <g
     id="g8">
    <path
       style="fill:#000000;stroke-width:1.33333"
       d="M 11.291643,127.93254 C 10.308532,126.34183 9.5759219,103.35136 8.7893911,49.407893 8.3970484,22.49945 8.6745312,11.621231 9.7899048,10.184536 11.077448,8.5260715 18.072973,8.0901225 51.984979,7.5550119 c 24.23814,-0.3824629 41.599817,-0.1340118 43,0.6153434 2.538308,1.3584609 3.405448,11.0189467 1.116081,12.4338517 -0.677749,0.418872 -16.619744,0.996278 -35.426655,1.283122 -18.806909,0.286844 -34.602386,0.929229 -35.10106,1.427522 -1.098462,1.097624 -1.786444,32.981053 -0.839304,38.896293 l 0.674282,4.211145 34.815857,0.158877 c 19.148723,0.08739 35.263832,0.435739 35.811355,0.774127 0.547524,0.338388 1.389796,2.717044 1.871716,5.2859 0.683682,3.644341 1.669084,4.859898 4.484479,5.53191 6.8213,1.628184 6.9416,2.057019 6.9416,24.744477 0,12.1037 -0.59436,22.3683 -1.38024,23.83674 -0.98818,1.84643 -2.78719,2.57321 -6.33334,2.55859 -8.568321,-0.0353 -8.651509,-0.25189 -7.827867,-20.37897 0.406668,-9.937636 0.388441,-20.231121 -0.04051,-22.874406 L 92.971475,81.253558 59.485737,81.643785 26,82.034011 25.333333,104.017 c -0.366666,12.09065 -1.152077,22.733 -1.745356,23.64966 -1.306713,2.01899 -11.082221,2.23036 -12.296334,0.26588 z"
       id="path495" />
  </g>
</svg>
