<?xml version="1.0" encoding="UTF-8" standalone="no"?>
<!-- Created with Inkscape (http://www.inkscape.org/) -->

<svg
   version="1.1"
   id="svg22"
   width="170.66667"
   height="102.66667"
   viewBox="0 0 170.66667 102.66667"
   xmlns="http://www.w3.org/2000/svg"
   xmlns:svg="http://www.w3.org/2000/svg">
  <defs
     id="defs26" />
  <g
     id="g28">
    <path
       style="fill:#000000;stroke-width:1.33333"
       d="m 149.39454,97.447678 c -1.08938,-2.035503 0.0245,-3.72865 6.54445,-9.947595 5.213,-4.972362 8.56463,-7.223131 9.95915,-6.688007 3.36616,1.291716 2.46594,3.416324 -4.52807,10.68681 -7.79651,8.104696 -10.18639,9.291854 -11.97553,5.948792 z M 11,90.86778 C 3.5309866,83.913899 2.9004817,82.572375 5.9224754,80.064343 c 1.5607737,-1.295327 3.1286385,-0.510754 8.3333346,4.170073 7.829822,7.04173 8.499346,7.90698 8.060541,10.416942 C 21.636395,98.540707 17.899271,97.291214 11,90.86778 Z m 130.63715,-1.76396 c -1.19491,-1.194909 -0.65212,-2.529004 2.30551,-5.666667 2.12758,-2.257098 5.31632,-5.854293 7.08606,-7.993763 2.19696,-2.655929 3.93708,-3.613901 5.48534,-3.019781 3.0577,1.173351 1.08477,4.788658 -6.78966,12.441727 -6.84557,6.653128 -6.07596,6.249778 -8.08725,4.238484 z M 24.591624,88.312919 C 21.293464,86.018913 13.546348,74.329661 14.198246,72.630846 c 1.302354,-3.393884 11.471541,3.151311 14.773409,9.508613 1.587647,3.056798 2.518516,5.925929 2.068599,6.375847 -1.110619,1.110618 -4.723923,0.997217 -6.44863,-0.202387 z M 132,79.550247 c 0,-3.839834 10.64819,-14.216912 14.58835,-14.216912 4.54239,0 3.18963,3.936313 -3.7312,10.857143 C 135.71538,83.332244 132,84.481976 132,79.550247 Z M 28.637682,74.028988 c -4.736764,-4.736764 -6.986382,-7.972827 -6.472827,-9.31113 1.188464,-3.097085 4.245512,-2.472573 7.907932,1.615477 1.806699,2.016667 4.779426,5.189261 6.60606,7.050207 3.816046,3.887729 4.192334,5.996854 1.269964,7.118273 -1.338302,0.513554 -4.574365,-1.736063 -9.311129,-6.472827 z m 8.752288,-7.685237 c -8.342772,-8.255612 -10.092939,-11.122024 -7.417675,-12.14862 1.701059,-0.652757 5.059599,1.653812 16.332199,11.216588 3.031259,2.571478 2.904087,5.839205 -0.274721,7.059027 -0.970225,0.372311 -4.858136,-2.384837 -8.639803,-6.126995 z m 86.0692,5.859849 c -0.38402,-0.621356 1.23057,-2.8964 3.58797,-5.055655 2.35741,-2.159255 5.62094,-5.537895 7.2523,-7.50809 1.79047,-2.162353 3.76258,-3.276539 4.97559,-2.811065 2.7408,1.051747 0.64771,5.002365 -6.09526,11.504546 -5.05055,4.870188 -8.30242,6.164925 -9.7206,3.870264 z M 52.579252,63.549687 C 49.11395,61.575826 38.666667,50.144666 38.666667,48.326879 c 0,-0.756199 0.809568,-1.685568 1.79904,-2.065264 2.029306,-0.778718 16.867627,13.173703 16.867627,15.860568 0,2.62037 -1.741736,3.143359 -4.754082,1.427504 z m 62.706638,0.37355 c -1.35054,-2.185226 13.25138,-16.145022 15.84616,-15.149313 2.72218,1.0446 1.5423,3.293346 -5.71522,10.892745 -5.38946,5.64333 -8.47313,6.938953 -10.13094,4.256568 z M 53.660536,49.457396 C 46.164357,40.941299 45.496138,39.401145 48.75492,38.150633 c 3.039374,-1.166317 16.822832,12.150077 16.30504,15.75253 -0.718096,4.996032 -4.32748,3.588375 -11.399424,-4.445767 z m 53.437654,5.743955 c -0.96963,-2.526804 14.22026,-16.93938 16.03426,-15.21374 1.66431,1.583238 -0.24463,6.426968 -2.86732,7.275513 -1.24582,0.403075 -3.69247,2.833767 -5.437,5.401538 -3.39721,5.000359 -6.40569,5.987633 -7.72994,2.536689 z m -7.659395,-6.869075 c -1.248574,-3.933908 0.117907,-6.191047 5.911215,-9.7641 2.88471,-1.779163 5.26107,-3.684842 5.2808,-4.234842 0.0197,-0.55 1.08586,-0.952632 2.36919,-0.894737 1.39392,0.06288 1.66232,0.376023 0.66667,0.777779 C 112.75,34.586258 112,35.913965 112,37.166835 c 0,1.25287 -2.63894,4.867866 -5.8643,8.033328 -5.27958,5.181507 -5.94733,5.493813 -6.696905,3.132113 z m -37.10546,-7.597593 c -6.359679,-7.006693 -7.417454,-9.240614 -5.064158,-10.69503 2.132429,-1.317915 14.730824,11.39428 14.730824,14.863886 0,4.685619 -2.678169,3.530628 -9.666666,-4.168856 z m 28.256529,-0.78215 c -1.391468,-0.859973 0.22857,-3.166582 6.702706,-9.543307 6.94326,-6.838788 8.63903,-7.947604 9.08033,-5.937377 0.35058,1.596947 -1.38911,4.328057 -4.91512,7.716168 -3.001779,2.884376 -5.457778,5.757852 -5.457778,6.3855 0,1.777076 -3.374376,2.637187 -5.410138,1.379016 z M 70.172416,31.805528 c -3.349176,-4.50696 -5.750967,-8.742089 -5.337312,-9.411395 0.413653,-0.669307 2.494977,-0.83412 4.625164,-0.366254 2.257984,0.495938 3.873067,0.295294 3.873067,-0.481154 0,-2.682698 13.45904,-16.0814604 15.404069,-15.3350825 3.067631,1.1771603 2.260227,4.1404625 -2.210096,8.1114055 -2.276648,2.022325 -5.904877,5.359149 -8.06273,7.415166 l -3.923373,3.738213 4.037017,5.489489 c 3.066925,4.170372 3.683565,5.915369 2.566137,7.261787 -2.629621,3.1685 -4.780594,1.909478 -10.971943,-6.422175 z m 13.827586,-2.590042 c 0,-3.119513 10.197109,-14.548819 12.980308,-14.548819 3.43861,0 1.485476,3.607288 -5.646975,10.429515 -6.261411,5.989072 -7.333333,6.591196 -7.333333,4.119304 z"
       id="path199" />
  </g>
</svg>
