<?xml version="1.0" encoding="UTF-8" standalone="no"?>
<!-- Created with Inkscape (http://www.inkscape.org/) -->

<svg
   version="1.1"
   id="svg32"
   width="141.33333"
   height="104"
   viewBox="0 0 141.33333 104"
   xmlns="http://www.w3.org/2000/svg"
   xmlns:svg="http://www.w3.org/2000/svg">
  <defs
     id="defs36" />
  <g
     id="g38">
    <path
       style="fill:#000000;stroke-width:1.33333"
       d="M 8.4361574,98.293695 C 7.3131764,96.476673 7.6861322,6.9198712 8.8243498,5.0781963 9.2441007,4.3990249 10.394044,4.5537923 11.452037,5.4318485 c 2.865448,2.3781108 2.792267,92.5999425 -0.076,93.7006005 -1.076515,0.413098 -2.3994589,0.03566 -2.9398756,-0.838754 z M 83.029909,97.809812 C 82.360486,96.447749 81.694337,80.865568 81.549577,63.182744 81.335266,37.004039 81.63331,30.744225 83.154143,29.482045 c 1.448959,-1.202528 2.037591,-1.107553 2.625134,0.42356 1.426162,3.716518 1.276638,67.571811 -0.161592,69.010042 -0.938638,0.938637 -1.754267,0.590094 -2.587776,-1.105835 z m 46.783711,0.555299 c -0.55572,-0.89919 -0.74428,-15.14919 -0.41902,-31.666667 0.32527,-16.517477 0.40764,-37.428345 0.18304,-46.468593 l -0.40835,-16.4368173 3.08202,0.4368166 3.08202,0.4368164 L 135.53141,38 c 0.10893,18.333333 0.47567,38.133333 0.81495,44 0.76621,13.249043 -2.85386,22.31765 -6.53274,16.365111 z m -97.121906,-0.99125 c -1.376973,-2.22799 -1.328787,-67.936789 0.05084,-69.316409 0.703859,-0.703859 2.004983,-0.83152 2.891386,-0.283692 1.179864,0.729196 1.655099,9.555445 1.773838,32.944479 0.08921,17.571634 0.108946,33.298428 0.04388,34.948428 -0.11884,3.01342 -3.257024,4.138956 -4.759935,1.707194 z M 56.893583,77 c -1.478516,-41.963 -1.135142,-49 2.390986,-49 1.876923,0 3.295138,22.757157 3.240614,52 -0.02897,15.542365 -0.551163,18.666667 -3.119876,18.666667 -1.339166,0 -1.926982,-5.070635 -2.511724,-21.666667 z m 48.199147,18.666667 c -0.23434,-1.65 -0.0329,-10.2 0.44759,-19 0.48051,-8.8 0.9397,-22.6 1.02042,-30.666667 0.0807,-8.066667 0.72838,-15.566667 1.43926,-16.666667 1.59847,-2.473462 1.42291,-4.7998 2.06274,27.333334 0.27744,13.933333 0.85476,28.238186 1.28294,31.788564 0.7953,6.59447 -0.65089,10.211436 -4.08287,10.211436 -0.95921,0 -1.93574,-1.35 -2.17008,-3 z M 25.333333,16.062617 c 0,-3.367632 2.172824,-3.558396 44.887209,-3.940886 26.761444,-0.239639 38.393788,0.113226 40.476478,1.227849 6.9692,3.729803 0.25085,4.48502 -42.681903,4.797919 -40.300776,0.293716 -42.681784,0.17741 -42.681784,-2.084882 z"
       id="path60" />
  </g>
</svg>
