<?xml version="1.0" encoding="UTF-8" standalone="no"?>
<!-- Created with Inkscape (http://www.inkscape.org/) -->

<svg
   version="1.1"
   id="svg12"
   width="101.33333"
   height="120"
   viewBox="0 0 101.33333 120"
   xmlns="http://www.w3.org/2000/svg"
   xmlns:svg="http://www.w3.org/2000/svg">
  <defs
     id="defs16" />
  <g
     id="g18">
    <path
       style="fill:#000000;stroke-width:1.33333"
       d="m 7.9998633,112.6665 c -1.8863315,-2.27289 -1.9543543,-2.05846 8.6706987,-27.333167 4.161791,-9.9 8.966861,-21.9 10.677936,-26.666666 C 29.059572,53.9 32.359391,45.2 34.681427,39.333333 37.003463,33.466667 40.456052,23.866667 42.353847,18 44.251641,12.133333 46.654769,6.3237968 47.694132,5.0899188 c 2.27741,-2.703626 5.42497,-1.7607675 6.983516,2.0919273 0.627021,1.5499847 3.281058,7.8955179 5.897861,14.1011859 2.616802,6.205668 4.757822,11.982201 4.757822,12.83674 0,0.85454 0.9,2.300643 2,3.213561 1.1,0.912919 2,2.524156 2,3.580526 0,1.05637 1.420109,5.032904 3.155797,8.836741 5.691351,12.472839 7.753956,17.44262 11.724328,28.2494 2.155392,5.866667 6.004666,14.79506 8.553944,19.840875 4.763023,9.427515 5.061477,14.704525 0.785346,13.885885 C 91.268962,111.28954 88.54432,106.48505 84.63404,96 83.403343,92.7 80.657216,86.301341 78.531536,81.780757 c -2.12568,-4.520584 -3.864872,-8.873525 -3.864872,-9.673204 0,-0.799678 -1.5,-4.563312 -3.333333,-8.363628 -1.833333,-3.800317 -3.333333,-7.863872 -3.333333,-9.030121 0,-1.166249 -1.032302,-3.594269 -2.294001,-5.3956 -1.261702,-1.801331 -3.550996,-7.484835 -5.087323,-12.630008 -3.375241,-11.303724 -7.247328,-18.186805 -9.952009,-17.690848 -1.911555,0.350521 -9.45799,19.706273 -11.827417,30.335985 -0.951599,4.269056 -7.566704,20.824699 -13.585311,34 -1.339976,2.933334 -3.71532,8.933334 -5.278543,13.333334 -5.02599,14.146643 -5.634908,15.414073 -8.018255,16.689603 -1.653818,0.8851 -2.8187753,0.68204 -3.9572757,-0.68977 z"
       id="path338" />
  </g>
</svg>
